<?xml version="1.0" encoding="UTF-8"?>
<svg xmlns="http://www.w3.org/2000/svg" xmlns:xlink="http://www.w3.org/1999/xlink" width="500pt" height="450pt" viewBox="0 0 500 450" version="1.1">
<g id="surface1">
<path style=" stroke:none;fill-rule:nonzero;fill:rgb(50.584412%,58.789063%,59.959412%);fill-opacity:1;" d="M 54.835938 328.265625 C 52.601563 328.265625 50.792969 326.453125 50.792969 324.21875 C 50.792969 321.984375 52.601563 320.175781 54.835938 320.175781 C 57.070313 320.175781 58.882813 321.984375 58.882813 324.21875 C 58.882813 326.453125 57.070313 328.265625 54.835938 328.265625 Z M 66.875 326.082031 L 66.875 322.355469 L 63.65625 321.695313 C 63.460938 321.015625 63.195313 320.367188 62.859375 319.761719 L 64.667969 317.023438 L 62.03125 314.386719 L 59.292969 316.199219 C 58.6875 315.859375 58.039063 315.59375 57.359375 315.398438 L 56.699219 312.179688 L 52.972656 312.179688 L 52.3125 315.398438 C 51.632813 315.59375 50.984375 315.859375 50.378906 316.199219 L 47.640625 314.386719 L 45.003906 317.023438 L 46.816406 319.761719 C 46.476563 320.367188 46.210938 321.015625 46.015625 321.695313 L 42.796875 322.355469 L 42.796875 326.082031 L 46.015625 326.742188 C 46.210938 327.421875 46.476563 328.070313 46.816406 328.675781 L 45.003906 331.414063 L 47.640625 334.050781 L 50.378906 332.242188 C 50.984375 332.578125 51.632813 332.84375 52.3125 333.039063 L 52.972656 336.257813 L 56.699219 336.257813 L 57.359375 333.039063 C 58.039063 332.84375 58.6875 332.578125 59.292969 332.242188 L 62.03125 334.050781 L 64.667969 331.414063 L 62.859375 328.675781 C 63.195313 328.070313 63.460938 327.421875 63.65625 326.742188 L 66.875 326.082031 "/>
<path style=" stroke:none;fill-rule:nonzero;fill:rgb(92.96875%,85.9375%,63.476563%);fill-opacity:1;" d="M 88.265625 340.472656 L 46.84375 340.472656 L 46.84375 378.257813 L 88.265625 378.257813 L 88.265625 340.472656 "/>
<path style=" stroke:none;fill-rule:nonzero;fill:rgb(87.889099%,78.125%,50.193787%);fill-opacity:1;" d="M 59.234375 341.273438 L 73.921875 368.253906 L 88.402344 343.597656 L 74.285156 362.917969 L 59.234375 341.273438 "/>
<path style=" stroke:none;fill-rule:nonzero;fill:rgb(87.889099%,78.125%,50.193787%);fill-opacity:1;" d="M 58.921875 340.472656 L 40.351563 340.472656 L 40.351563 378.257813 L 58.921875 378.257813 L 58.921875 340.472656 "/>
<path style=" stroke:none;fill-rule:nonzero;fill:rgb(86.71875%,82.03125%,70.117188%);fill-opacity:1;" d="M 266.398438 335.878906 L 222.742188 334.742188 L 214.972656 373.28125 L 272.792969 373.28125 L 266.398438 335.878906 "/>
<path style=" stroke:none;fill-rule:nonzero;fill:rgb(80.076599%,74.414063%,61.914063%);fill-opacity:1;" d="M 266.109375 334.179688 L 222.558594 335.65625 L 217.949219 358.527344 L 269.738281 355.40625 L 266.109375 334.179688 "/>
<path style=" stroke:none;fill-rule:nonzero;fill:rgb(92.96875%,90.234375%,82.03125%);fill-opacity:1;" d="M 291.949219 372.300781 L 195.816406 372.300781 L 195.816406 379.617188 L 291.949219 379.617188 L 291.949219 372.300781 "/>
<path style=" stroke:none;fill-rule:nonzero;fill:rgb(92.96875%,90.234375%,82.03125%);fill-opacity:1;" d="M 384.769531 129.261719 L 102.996094 129.261719 C 96.152344 129.261719 90.605469 134.546875 90.605469 141.066406 L 90.605469 332.664063 C 90.605469 339.183594 96.152344 344.46875 102.996094 344.46875 L 384.769531 344.46875 C 391.613281 344.46875 397.160156 339.183594 397.160156 332.664063 L 397.160156 141.066406 C 397.160156 134.546875 391.613281 129.261719 384.769531 129.261719 "/>
<path style=" stroke:none;fill-rule:nonzero;fill:rgb(95.701599%,93.359375%,87.5%);fill-opacity:1;" d="M 146.980469 344.46875 L 271.066406 344.46875 L 313.894531 129.261719 L 189.808594 129.261719 L 146.980469 344.46875 "/>
<path style=" stroke:none;fill-rule:nonzero;fill:rgb(87.889099%,83.201599%,71.289063%);fill-opacity:1;" d="M 384.769531 341.445313 L 102.996094 341.445313 C 96.152344 341.445313 90.605469 335.898438 90.605469 329.054688 L 90.605469 332.078125 C 90.605469 338.921875 96.152344 344.46875 104.074219 345.164063 L 385.851563 345.164063 C 391.613281 344.46875 397.160156 338.921875 397.160156 332.078125 L 397.160156 329.054688 C 397.160156 335.898438 391.613281 341.445313 384.769531 341.445313 "/>
<path style=" stroke:none;fill-rule:nonzero;fill:rgb(31.762695%,29.80957%,30.200195%);fill-opacity:1;" d="M 384.769531 129.261719 L 102.996094 129.261719 C 96.152344 129.261719 90.605469 134.546875 90.605469 141.066406 L 90.605469 309.882813 L 397.160156 309.882813 L 397.160156 141.066406 C 397.160156 134.546875 391.613281 129.261719 384.769531 129.261719 "/>
<path style=" stroke:none;fill-rule:nonzero;fill:rgb(26.660156%,23.535156%,23.535156%);fill-opacity:1;" d="M 101.265625 309.882813 L 386.5 309.882813 L 386.5 138.046875 L 101.265625 138.046875 Z M 101.265625 309.882813 "/>
<path style=" stroke:none;fill-rule:nonzero;fill:rgb(46.655273%,37.255859%,57.617188%);fill-opacity:1;" d="M 104.839844 309.882813 L 382.554688 309.882813 L 382.554688 140.871094 L 104.839844 140.871094 Z M 104.839844 309.882813 "/>
<path style=" stroke:none;fill-rule:nonzero;fill:rgb(80.076599%,74.414063%,61.914063%);fill-opacity:1;" d="M 260.917969 326.144531 L 226.847656 326.144531 C 225.476563 326.144531 224.363281 326.855469 224.363281 327.738281 C 224.363281 328.621094 225.476563 329.335938 226.847656 329.335938 L 260.917969 329.335938 C 262.289063 329.335938 263.402344 328.621094 263.402344 327.738281 C 263.402344 326.855469 262.289063 326.144531 260.917969 326.144531 "/>
<path style=" stroke:none;fill-rule:nonzero;fill:rgb(60.742188%,55.271912%,52.929688%);fill-opacity:1;" d="M 90.605469 144.242188 L 90.605469 141.648438 C 90.605469 134.808594 96.152344 129.261719 102.996094 129.261719 L 384.769531 129.261719 C 391.597656 129.261719 397.132813 134.777344 397.160156 141.597656 L 397.160156 144.191406 C 397.132813 137.371094 391.597656 131.855469 384.769531 131.855469 L 248.980469 131.855469 C 249.277344 131.011719 249.554688 130.144531 249.800781 129.261719 L 188.683594 129.261719 C 188.164063 129.503906 187.65625 129.742188 187.164063 129.976563 C 185.914063 130.570313 184.835938 131.191406 183.9375 131.855469 L 102.996094 131.855469 C 96.152344 131.855469 90.605469 137.402344 90.605469 144.242188 "/>
<path style=" stroke:none;fill-rule:nonzero;fill:rgb(20.776367%,19.213867%,19.213867%);fill-opacity:1;" d="M 101.265625 263.234375 C 95.929688 258.855469 92.023438 254.835938 90.605469 251.792969 L 90.605469 215.679688 L 93.96875 217.964844 C 94.183594 217.71875 94.398438 217.46875 94.613281 217.222656 C 95.121094 216.636719 95.632813 216.054688 96.128906 215.472656 C 96.433594 215.113281 96.726563 214.761719 97.023438 214.40625 C 97.480469 213.859375 97.941406 213.3125 98.386719 212.773438 C 98.707031 212.382813 99.015625 211.992188 99.328125 211.605469 C 99.734375 211.097656 100.148438 210.59375 100.542969 210.089844 C 100.789063 209.773438 101.027344 209.464844 101.265625 209.148438 L 101.265625 213.386719 C 99.453125 215.292969 97.675781 217.285156 95.953125 219.3125 L 101.265625 222.925781 L 101.265625 263.234375 M 246.359375 138.046875 L 180.582031 138.046875 C 180.570313 137.273438 180.664063 136.554688 180.863281 135.886719 C 181.109375 135.070313 181.507813 134.320313 182.058594 133.628906 C 182.558594 132.996094 183.1875 132.410156 183.9375 131.855469 L 248.980469 131.855469 C 248.132813 134.273438 247.140625 136.457031 246.359375 138.046875 "/>
<path style=" stroke:none;fill-rule:nonzero;fill:rgb(17.651367%,15.281677%,15.281677%);fill-opacity:1;" d="M 104.839844 266.058594 C 103.589844 265.105469 102.394531 264.164063 101.265625 263.234375 L 101.265625 222.925781 L 104.839844 225.355469 L 104.839844 266.058594 M 382.554688 249.210938 L 382.554688 246.105469 C 382.601563 246.242188 382.628906 246.363281 382.644531 246.472656 C 382.738281 247.253906 382.722656 248.226563 382.554688 249.210938 M 101.265625 213.386719 L 101.265625 209.148438 C 101.347656 209.042969 101.433594 208.933594 101.515625 208.824219 C 101.875 208.355469 102.242188 207.886719 102.59375 207.417969 C 102.941406 206.957031 103.269531 206.496094 103.605469 206.035156 C 103.910156 205.613281 104.226563 205.191406 104.523438 204.773438 C 104.628906 204.621094 104.734375 204.472656 104.839844 204.324219 L 104.839844 209.800781 C 103.636719 210.949219 102.445313 212.148438 101.265625 213.386719 M 382.554688 202.714844 L 382.554688 199.53125 C 382.617188 199.609375 382.671875 199.6875 382.722656 199.761719 L 382.773438 199.835938 C 382.890625 200.015625 382.980469 200.179688 383.039063 200.332031 L 383.0625 200.398438 C 383.113281 200.550781 383.140625 200.691406 383.125 200.808594 C 383.0625 201.257813 382.894531 201.835938 382.636719 202.511719 C 382.609375 202.578125 382.585938 202.648438 382.554688 202.714844 M 245.019531 140.871094 L 181.023438 140.871094 C 180.742188 139.851563 180.59375 138.914063 180.582031 138.046875 L 246.359375 138.046875 C 245.558594 139.667969 244.976563 140.667969 244.976563 140.667969 L 244.890625 140.613281 C 244.933594 140.699219 244.980469 140.785156 245.019531 140.871094 "/>
<path style=" stroke:none;fill-rule:nonzero;fill:rgb(30.589294%,23.925781%,36.863708%);fill-opacity:1;" d="M 300.519531 309.882813 L 197.425781 309.882813 L 194.703125 282.945313 C 192.589844 287.78125 191.03125 290.945313 191.03125 290.945313 C 191.03125 290.945313 187.664063 288.839844 182.804688 285.117188 C 176.644531 290.234375 169.367188 294.683594 162.386719 295.054688 C 162.066406 295.070313 161.742188 295.082031 161.417969 295.082031 C 156.992188 295.082031 152.097656 293.523438 147.28125 291.222656 L 147.277344 291.222656 C 134.035156 285.429688 116.902344 275.269531 104.839844 266.058594 L 104.839844 225.355469 L 149.007813 255.382813 L 152.109375 257.554688 C 152.941406 256.914063 153.78125 256.054688 154.582031 255.105469 C 153.894531 253.957031 153.234375 252.796875 152.621094 251.613281 C 162.152344 231.855469 173.070313 211.839844 187.457031 204.269531 C 191.09375 201.5625 195.820313 198.492188 200.9375 195.613281 L 201.015625 195.566406 C 201.789063 195.132813 202.566406 194.703125 203.355469 194.28125 C 203.445313 194.230469 203.539063 194.183594 203.628906 194.132813 C 204.296875 193.777344 204.964844 193.425781 205.640625 193.078125 L 205.308594 192.820313 L 209.394531 186.652344 C 209.394531 186.652344 209.601563 186.78125 209.96875 187.003906 L 208.757813 177.488281 C 194.941406 168.265625 188.964844 155.078125 188.964844 155.078125 L 188.992188 154.972656 C 184.992188 149.425781 182.441406 145.144531 181.296875 141.746094 C 181.195313 141.449219 181.105469 141.15625 181.023438 140.871094 L 245.019531 140.871094 C 247.78125 146.441406 249.101563 153.328125 250.28125 157.851563 C 252.328125 165.722656 268.46875 183.527344 268.46875 183.527344 C 268.46875 183.527344 267.179688 191.457031 259.613281 195.847656 C 260.0625 196.101563 260.515625 196.355469 260.964844 196.617188 C 261.089844 196.6875 261.214844 196.761719 261.339844 196.835938 C 262.101563 197.277344 262.859375 197.734375 263.613281 198.199219 L 263.773438 198.300781 C 264.613281 198.824219 265.441406 199.359375 266.261719 199.914063 L 266.265625 199.914063 C 267.265625 200.59375 268.246094 201.285156 269.210938 202.007813 C 304.945313 227.605469 325.375 251.472656 325.375 251.472656 C 325.375 251.472656 324.777344 252.910156 323.480469 255.109375 C 324.695313 255.96875 325.792969 256.667969 326.652344 257.09375 L 357.054688 232.902344 C 356.890625 232.828125 356.722656 232.757813 356.5625 232.675781 C 356.300781 232.539063 356.046875 232.390625 355.800781 232.226563 C 355.800781 232.226563 355.195313 231.777344 354.304688 231 C 354.175781 230.890625 354.042969 230.769531 353.902344 230.644531 C 353.628906 230.398438 353.328125 230.121094 353.019531 229.828125 C 352.863281 229.679688 352.707031 229.523438 352.546875 229.363281 C 352.066406 228.886719 351.5625 228.359375 351.066406 227.796875 C 350.566406 227.230469 350.074219 226.625 349.609375 225.992188 C 349.300781 225.570313 349.003906 225.136719 348.726563 224.691406 C 348.449219 224.246094 348.191406 223.789063 347.964844 223.328125 C 347.734375 222.867188 347.53125 222.394531 347.363281 221.921875 C 347.195313 221.449219 347.066406 220.96875 346.976563 220.488281 C 346.660156 218.804688 346.859375 217.101563 347.890625 215.5 C 348.054688 215.246094 348.230469 214.972656 348.421875 214.683594 L 348.496094 214.566406 C 348.675781 214.292969 348.867188 214.003906 349.070313 213.699219 L 349.078125 213.6875 C 354.257813 205.878906 365.976563 189.234375 367.222656 188.929688 C 367.257813 188.921875 367.292969 188.917969 367.335938 188.917969 C 368.964844 188.917969 377.925781 194.757813 381.578125 198.429688 C 381.972656 198.824219 382.304688 199.195313 382.554688 199.53125 L 382.554688 202.714844 C 382.308594 203.34375 381.984375 204.050781 381.605469 204.824219 C 381.183594 205.6875 380.6875 206.625 380.132813 207.625 C 379.765625 208.292969 379.371094 208.984375 378.957031 209.695313 C 376.886719 213.261719 374.300781 217.324219 371.816406 221.105469 C 371.320313 221.863281 370.828125 222.605469 370.34375 223.335938 C 370.101563 223.699219 369.859375 224.058594 369.625 224.410156 C 369.148438 225.117188 368.6875 225.808594 368.242188 226.46875 C 368.128906 226.632813 368.019531 226.789063 367.910156 226.953125 C 371.773438 231.414063 381.488281 242.847656 382.554688 246.105469 L 382.554688 249.210938 C 382.152344 251.589844 380.882813 254.035156 378.261719 254.035156 C 377.414063 254.035156 376.421875 253.78125 375.273438 253.183594 L 375.023438 253.03125 C 367.226563 263.589844 356.6875 282.777344 339.234375 290.441406 C 334.167969 292.828125 328.644531 294.660156 323.601563 294.660156 C 323.007813 294.660156 322.425781 294.636719 321.847656 294.585938 C 314.164063 293.886719 304.335938 286.546875 296.648438 279.636719 C 298.933594 295.503906 300.351563 308.324219 300.519531 309.882813 M 104.839844 209.800781 L 104.839844 204.324219 C 105.125 203.914063 105.402344 203.503906 105.683594 203.09375 C 105.898438 202.777344 106.125 202.460938 106.335938 202.144531 C 106.921875 201.273438 107.484375 200.402344 108.023438 199.535156 C 107.585938 199.121094 107.171875 198.691406 106.792969 198.246094 C 106.519531 197.925781 106.285156 197.589844 106.074219 197.246094 L 105.957031 197.066406 C 105.761719 196.734375 105.59375 196.398438 105.453125 196.054688 L 105.375 195.851563 C 105.238281 195.496094 105.121094 195.136719 105.039063 194.769531 L 105.035156 194.738281 C 104.953125 194.375 104.90625 194.007813 104.878906 193.640625 L 104.863281 193.453125 C 104.84375 193.089844 104.847656 192.726563 104.875 192.363281 L 104.890625 192.167969 C 104.929688 191.792969 104.984375 191.417969 105.066406 191.050781 L 105.070313 191.03125 C 105.160156 190.65625 105.273438 190.285156 105.410156 189.921875 L 105.457031 189.789063 C 105.59375 189.429688 105.757813 189.078125 105.9375 188.734375 L 106.011719 188.601563 C 106.402344 187.886719 106.886719 187.210938 107.457031 186.59375 L 107.5 186.542969 C 107.785156 186.238281 108.09375 185.949219 108.421875 185.675781 L 108.5 185.609375 C 109.179688 185.050781 109.941406 184.566406 110.777344 184.179688 C 111.191406 183.988281 111.625 183.824219 112.070313 183.683594 L 112.15625 183.660156 C 113.066406 183.382813 114.046875 183.214844 115.078125 183.183594 C 115.203125 183.179688 115.324219 183.175781 115.449219 183.175781 C 116.96875 183.175781 118.601563 183.460938 120.316406 184.105469 C 120.316406 184.105469 109.910156 190.34375 116.742188 194.890625 C 118.054688 195.761719 119.285156 196.113281 120.425781 196.113281 C 121.226563 196.113281 121.980469 195.9375 122.679688 195.648438 C 125.730469 194.394531 127.769531 190.945313 128.238281 190.09375 L 128.246094 190.078125 L 128.308594 189.957031 L 128.320313 189.9375 L 128.339844 189.902344 C 128.339844 189.902344 136.40625 191.296875 131.054688 199.9375 C 129.511719 202.429688 127.324219 203.890625 124.855469 204.566406 C 124.449219 204.679688 124.035156 204.769531 123.613281 204.839844 L 123.605469 204.839844 C 123.1875 204.910156 122.769531 204.957031 122.34375 204.984375 L 122.308594 204.988281 C 121.992188 205.007813 121.675781 205.019531 121.355469 205.019531 C 121.257813 205.019531 121.15625 205.019531 121.054688 205.015625 L 120.980469 205.015625 C 120.574219 205.003906 120.167969 204.980469 119.757813 204.9375 L 119.644531 204.925781 C 119.246094 204.882813 118.851563 204.824219 118.453125 204.753906 L 118.300781 204.730469 C 117.914063 204.65625 117.527344 204.570313 117.140625 204.472656 L 116.972656 204.433594 C 116.578125 204.328125 116.191406 204.214844 115.800781 204.085938 L 115.667969 204.046875 C 115.242188 203.902344 114.820313 203.746094 114.402344 203.574219 L 114.394531 203.574219 C 113.941406 203.386719 113.492188 203.191406 113.054688 202.976563 C 110.308594 204.878906 107.550781 207.210938 104.839844 209.800781 "/>
<path style=" stroke:none;fill-rule:nonzero;fill:rgb(39.598083%,35.693359%,34.104919%);fill-opacity:1;" d="M 248.980469 131.855469 L 183.9375 131.855469 C 184.835938 131.191406 185.914063 130.570313 187.164063 129.976563 C 187.65625 129.742188 188.164063 129.503906 188.683594 129.261719 L 249.800781 129.261719 C 249.554688 130.144531 249.277344 131.011719 248.980469 131.855469 "/>
<path style=" stroke:none;fill-rule:nonzero;fill:rgb(65.039063%,64.256287%,64.256287%);fill-opacity:1;" d="M 387.140625 345.164063 L 318.855469 345.164063 L 385.851563 345.164063 C 388.90625 344.796875 391.898438 343.066406 394.039063 340.5 C 395.980469 338.414063 397.160156 335.671875 397.160156 332.664063 L 397.160156 332.132813 L 397.160156 334.089844 C 397.160156 336.75 396.109375 339.171875 394.390625 341.015625 C 392.496094 343.292969 389.851563 344.839844 387.140625 345.164063 "/>
<path style=" stroke:none;fill-rule:nonzero;fill:rgb(60.351563%,58.006287%,52.929688%);fill-opacity:1;" d="M 384.769531 341.445313 L 317.984375 341.445313 C 317.300781 337.800781 317.066406 333.984375 317.347656 330.046875 C 317.859375 322.808594 320.035156 315.960938 323.476563 309.882813 L 397.160156 309.882813 L 397.160156 329.109375 C 397.132813 335.925781 391.597656 341.445313 384.769531 341.445313 M 394.039063 340.5 C 395.925781 338.238281 397.148438 335.328125 397.160156 332.132813 L 397.160156 332.664063 C 397.160156 335.671875 395.980469 338.414063 394.039063 340.5 "/>
<path style=" stroke:none;fill-rule:nonzero;fill:rgb(57.226563%,53.318787%,45.872498%);fill-opacity:1;" d="M 385.851563 345.164063 L 318.855469 345.164063 C 318.511719 343.945313 318.222656 342.707031 317.984375 341.445313 L 384.769531 341.445313 C 391.597656 341.445313 397.132813 335.925781 397.160156 329.109375 L 397.160156 332.132813 C 397.148438 335.328125 395.925781 338.238281 394.039063 340.5 C 391.898438 343.066406 388.90625 344.796875 385.851563 345.164063 "/>
<path style=" stroke:none;fill-rule:nonzero;fill:rgb(20.776367%,19.213867%,19.213867%);fill-opacity:1;" d="M 397.160156 309.882813 L 386.5 309.882813 L 386.5 283.355469 C 390.265625 283.988281 393.835938 285.097656 397.160156 286.625 L 397.160156 309.882813 "/>
<path style=" stroke:none;fill-rule:nonzero;fill:rgb(17.651367%,15.281677%,15.281677%);fill-opacity:1;" d="M 386.5 309.882813 L 382.554688 309.882813 L 382.554688 282.875 C 383.890625 282.976563 385.207031 283.136719 386.5 283.355469 L 386.5 309.882813 "/>
<path style=" stroke:none;fill-rule:nonzero;fill:rgb(30.589294%,23.925781%,36.863708%);fill-opacity:1;" d="M 382.554688 309.882813 L 323.476563 309.882813 C 330.796875 296.945313 343.832031 287.472656 358.753906 285.03125 L 358.742188 285.023438 L 358.9375 285 C 360.046875 284.824219 361.160156 284.6875 362.289063 284.589844 L 370.171875 283.628906 C 372.402344 283.1875 374.675781 282.90625 376.980469 282.800781 L 377.027344 282.796875 C 377.726563 282.765625 378.429688 282.742188 379.132813 282.742188 C 380.289063 282.742188 381.429688 282.789063 382.554688 282.875 L 382.554688 309.882813 "/>
<path style=" stroke:none;fill-rule:nonzero;fill:rgb(41.184998%,58.006287%,71.679688%);fill-opacity:1;" d="M 248.320313 86.453125 C 240.386719 77.117188 223.710938 85.738281 213.203125 91.574219 C 203.507813 96.960938 202.777344 103.769531 211.308594 121.925781 L 259.976563 102.355469 C 259.976563 102.355469 258.640625 98.597656 248.320313 86.453125 "/>
<path style=" stroke:none;fill-rule:nonzero;fill:rgb(31.762695%,49.021912%,60.742188%);fill-opacity:1;" d="M 217.097656 89.457031 C 215.734375 90.179688 214.425781 90.894531 213.203125 91.574219 C 203.507813 96.960938 202.777344 103.769531 211.308594 121.925781 L 244.285156 108.664063 C 230.503906 107.492188 219.46875 99.597656 217.097656 89.457031 "/>
<path style=" stroke:none;fill-rule:nonzero;fill:rgb(42.747498%,17.259216%,14.501953%);fill-opacity:1;" d="M 233.578125 97.976563 C 218.652344 99.023438 211.066406 121.621094 211.066406 121.621094 C 211.066406 121.621094 214.949219 137.613281 227.371094 148.539063 L 231.171875 147.21875 C 231.171875 147.21875 248.503906 96.925781 233.578125 97.976563 "/>
<path style=" stroke:none;fill-rule:nonzero;fill:rgb(90.625%,60.742188%,41.184998%);fill-opacity:1;" d="M 320.472656 231.054688 C 320.472656 231.054688 330.265625 243.023438 333.8125 244.695313 C 337.359375 246.367188 350.027344 237.789063 350.027344 237.789063 L 360.5 271.921875 C 360.5 271.921875 337.550781 292.453125 322.71875 290.8125 C 307.882813 289.171875 288.757813 257.054688 288.757813 257.054688 L 320.472656 231.054688 "/>
<path style=" stroke:none;fill-rule:nonzero;fill:rgb(90.625%,60.742188%,41.184998%);fill-opacity:1;" d="M 167.179688 234.300781 C 167.179688 234.300781 160.714844 245.566406 156.628906 247.121094 C 152.546875 248.679688 138.785156 232.097656 138.785156 232.097656 L 125.011719 263.714844 C 125.011719 263.714844 145.601563 292.800781 162.609375 291.65625 C 179.621094 290.511719 202.332031 259.644531 202.332031 259.644531 L 167.179688 234.300781 "/>
<path style=" stroke:none;fill-rule:nonzero;fill:rgb(92.96875%,85.9375%,63.476563%);fill-opacity:1;" d="M 283.5625 177.269531 L 288.519531 270.808594 C 318.570313 268.304688 332.761719 237.417969 332.761719 237.417969 C 332.761719 237.417969 315.648438 208.203125 283.5625 177.269531 "/>
<path style=" stroke:none;fill-rule:nonzero;fill:rgb(84.764099%,76.5625%,52.929688%);fill-opacity:1;" d="M 283.703125 179.921875 L 288.519531 270.808594 C 295.378906 270.238281 301.402344 268.179688 306.628906 265.355469 C 308.546875 255.011719 308.632813 242.300781 306.433594 228.835938 C 302.765625 206.351563 293.738281 187.867188 283.703125 179.921875 "/>
<path style=" stroke:none;fill-rule:nonzero;fill:rgb(41.184998%,58.006287%,71.679688%);fill-opacity:1;" d="M 195.027344 310.042969 L 298.71875 310.042969 C 298.71875 310.042969 301.875 219.054688 294.78125 195.265625 C 287.683594 171.472656 255.933594 158.355469 248.867188 157.285156 C 235.097656 155.195313 198.785156 181.074219 194.191406 188.585938 C 189.601563 196.097656 197.53125 257.453125 197.53125 257.453125 L 195.027344 310.042969 "/>
<path style=" stroke:none;fill-rule:nonzero;fill:rgb(32.151794%,50.584412%,62.693787%);fill-opacity:1;" d="M 299.109375 240.65625 C 298.515625 303.683594 278.707031 306.378906 254.34375 306.378906 C 229.605469 306.378906 209.550781 303.644531 209.550781 237.757813 C 209.550781 212.4375 212.519531 188.976563 217.570313 169.664063 C 206.40625 176.738281 196.453125 184.886719 194.191406 188.585938 C 189.601563 196.097656 197.53125 257.453125 197.53125 257.453125 L 195.027344 310.042969 L 298.71875 310.042969 C 298.71875 310.042969 299.988281 273.484375 299.109375 240.65625 "/>
<path style=" stroke:none;fill-rule:nonzero;fill:rgb(32.151794%,50.584412%,62.693787%);fill-opacity:1;" d="M 216.902344 310.042969 C 219.796875 296 221.496094 278.945313 221.496094 260.542969 C 221.496094 222.910156 214.40625 190.878906 204.492188 178.839844 C 199.339844 182.859375 195.492188 186.460938 194.191406 188.585938 C 189.601563 196.097656 197.53125 257.453125 197.53125 257.453125 L 195.027344 310.042969 L 216.902344 310.042969 "/>
<path style=" stroke:none;fill-rule:nonzero;fill:rgb(92.96875%,85.9375%,63.476563%);fill-opacity:1;" d="M 159.96875 238.671875 C 167.898438 266.21875 191.6875 286.566406 191.6875 286.566406 C 191.6875 286.566406 212.429688 247.320313 214.226563 227.714844 C 217.355469 193.59375 201.867188 180.941406 201.867188 180.941406 C 186.472656 190.257813 172.527344 214.609375 159.96875 238.671875 "/>
<path style=" stroke:none;fill-rule:nonzero;fill:rgb(84.764099%,76.5625%,52.929688%);fill-opacity:1;" d="M 184.707031 269.132813 C 175.109375 266.53125 172.851563 244.019531 179.671875 218.84375 C 183.304688 205.421875 188.785156 193.957031 194.5625 186.570313 C 182.03125 198.113281 170.511719 218.476563 159.96875 238.671875 C 167.898438 266.21875 191.6875 286.566406 191.6875 286.566406 C 191.6875 286.566406 210.886719 250.226563 213.9375 230.019531 C 206.988281 254.277344 194.082031 271.671875 184.707031 269.132813 "/>
<path style=" stroke:none;fill-rule:nonzero;fill:rgb(84.764099%,76.5625%,52.929688%);fill-opacity:1;" d="M 201.867188 180.941406 C 199.425781 182.421875 197.023438 184.3125 194.652344 186.484375 C 198.640625 188.5625 203.570313 190.261719 209.199219 191.488281 C 205.722656 184.09375 201.867188 180.941406 201.867188 180.941406 "/>
<path style=" stroke:none;fill-rule:nonzero;fill:rgb(92.96875%,72.459412%,51.756287%);fill-opacity:1;" d="M 333.21875 244.355469 C 327.789063 261.46875 324.777344 276.03125 341.054688 285.628906 C 360.765625 275.679688 382.304688 253.28125 386.898438 237.488281 L 370.242188 219.398438 L 333.21875 244.355469 "/>
<path style=" stroke:none;fill-rule:nonzero;fill:rgb(90.625%,60.742188%,41.184998%);fill-opacity:1;" d="M 370.242188 219.398438 L 358.890625 227.050781 C 362.429688 226.59375 363.269531 228.867188 365.386719 230.75 C 372.3125 236.902344 369.28125 252.40625 355.941406 267.414063 C 349.789063 274.335938 342.984375 279.5625 336.753906 282.613281 C 338.011719 283.664063 339.433594 284.671875 341.054688 285.628906 C 360.765625 275.679688 382.304688 253.28125 386.898438 237.488281 L 370.242188 219.398438 "/>
<path style=" stroke:none;fill-rule:nonzero;fill:rgb(92.96875%,72.459412%,51.756287%);fill-opacity:1;" d="M 158.511719 245.90625 C 173.957031 262.648438 166.921875 278.730469 148.714844 284.015625 C 129.453125 272.800781 113.164063 248.3125 110.273438 236.339844 L 127.828125 216.132813 L 158.511719 245.90625 "/>
<path style=" stroke:none;fill-rule:nonzero;fill:rgb(90.625%,60.742188%,41.184998%);fill-opacity:1;" d="M 158.511719 245.90625 L 155.800781 243.277344 C 159.023438 255.472656 157.871094 265.585938 151.875 269.019531 C 142.863281 274.183594 126.375 262.347656 115.050781 242.578125 C 113.640625 240.117188 112.375 237.648438 111.261719 235.203125 L 110.273438 236.339844 C 113.164063 248.3125 129.035156 275.777344 148.296875 286.992188 C 166.503906 281.707031 173.957031 262.648438 158.511719 245.90625 "/>
<path style=" stroke:none;fill-rule:nonzero;fill:rgb(92.96875%,85.9375%,63.476563%);fill-opacity:1;" d="M 91.292969 298.414063 L 81.410156 298.414063 C 80.003906 298.414063 78.859375 299.558594 78.859375 300.96875 L 78.859375 304.039063 C 78.859375 305.449219 80.003906 306.589844 81.410156 306.589844 L 91.292969 306.589844 C 92.703125 306.589844 93.847656 305.449219 93.847656 304.039063 L 93.847656 300.96875 C 93.847656 299.558594 92.703125 298.414063 91.292969 298.414063 "/>
<path style=" stroke:none;fill-rule:nonzero;fill:rgb(95.701599%,93.359375%,87.5%);fill-opacity:1;" d="M 88.140625 298.519531 L 85.996094 298.519531 C 84.585938 298.519531 83.441406 299.664063 83.441406 301.074219 L 83.441406 304.140625 C 83.441406 305.550781 84.585938 306.695313 85.996094 306.695313 L 88.140625 306.695313 C 89.550781 306.695313 90.691406 305.550781 90.691406 304.140625 L 90.691406 301.074219 C 90.691406 299.664063 89.550781 298.519531 88.140625 298.519531 "/>
<path style=" stroke:none;fill-rule:nonzero;fill:rgb(50.584412%,58.789063%,59.959412%);fill-opacity:1;" d="M 435.71875 266.574219 C 429.667969 266.574219 424.765625 261.671875 424.765625 255.621094 C 424.765625 249.570313 429.667969 244.667969 435.71875 244.667969 C 441.765625 244.667969 446.671875 249.570313 446.671875 255.621094 C 446.671875 261.671875 441.765625 266.574219 435.71875 266.574219 Z M 455.019531 258.609375 L 455.019531 252.632813 L 449.855469 251.578125 C 449.546875 250.488281 449.117188 249.449219 448.578125 248.476563 L 451.476563 244.085938 L 447.253906 239.859375 L 442.859375 242.761719 C 441.890625 242.222656 440.851563 241.792969 439.761719 241.484375 L 438.703125 236.320313 L 432.730469 236.320313 L 431.675781 241.484375 C 430.585938 241.792969 429.542969 242.222656 428.574219 242.761719 L 424.179688 239.859375 L 419.957031 244.085938 L 422.855469 248.476563 C 422.316406 249.449219 421.890625 250.488281 421.578125 251.578125 L 416.414063 252.632813 L 416.414063 258.609375 L 421.578125 259.664063 C 421.890625 260.753906 422.316406 261.792969 422.855469 262.765625 L 419.957031 267.15625 L 424.179688 271.382813 L 428.574219 268.480469 C 429.542969 269.019531 430.585938 269.449219 431.675781 269.761719 L 432.730469 274.921875 L 438.703125 274.921875 L 439.761719 269.761719 C 440.851563 269.449219 441.890625 269.023438 442.859375 268.480469 L 447.253906 271.382813 L 451.476563 267.15625 L 448.578125 262.765625 C 449.117188 261.792969 449.546875 260.753906 449.855469 259.664063 L 455.019531 258.609375 "/>
<path style=" stroke:none;fill-rule:nonzero;fill:rgb(50.584412%,58.789063%,59.959412%);fill-opacity:1;" d="M 417.394531 230.273438 C 413.542969 230.273438 410.421875 227.148438 410.421875 223.296875 C 410.421875 219.445313 413.542969 216.324219 417.394531 216.324219 C 421.246094 216.324219 424.367188 219.445313 424.367188 223.296875 C 424.367188 227.148438 421.246094 230.273438 417.394531 230.273438 Z M 433.257813 225.753906 L 433.257813 220.84375 L 429.015625 219.976563 C 428.757813 219.078125 428.40625 218.226563 427.964844 217.425781 L 430.347656 213.816406 L 426.875 210.34375 L 423.265625 212.730469 C 422.46875 212.285156 421.613281 211.933594 420.71875 211.679688 L 419.847656 207.433594 L 414.9375 207.433594 L 414.070313 211.679688 C 413.175781 211.933594 412.320313 212.285156 411.523438 212.730469 L 407.914063 210.34375 L 404.441406 213.816406 L 406.824219 217.425781 C 406.382813 218.226563 406.03125 219.078125 405.773438 219.976563 L 401.53125 220.84375 L 401.53125 225.753906 L 405.773438 226.621094 C 406.03125 227.515625 406.382813 228.371094 406.824219 229.167969 L 404.441406 232.777344 L 407.914063 236.25 L 411.523438 233.867188 C 412.320313 234.3125 413.175781 234.660156 414.070313 234.917969 L 414.9375 239.160156 L 419.847656 239.160156 L 420.71875 234.917969 C 421.613281 234.660156 422.46875 234.3125 423.265625 233.867188 L 426.875 236.25 L 430.347656 232.777344 L 427.964844 229.167969 C 428.40625 228.371094 428.757813 227.515625 429.015625 226.621094 L 433.257813 225.753906 "/>
<path style=" stroke:none;fill-rule:nonzero;fill:rgb(90.625%,60.742188%,41.184998%);fill-opacity:1;" d="M 385.523438 201.25 C 382.324219 203.132813 374.304688 208.273438 367.992188 218.421875 C 365.65625 222.179688 366.382813 227.015625 369.683594 230.046875 L 373.589844 233.636719 C 376.453125 236.265625 383.53125 238.585938 388.351563 236.398438 C 393.414063 234.105469 396.363281 226.894531 398.632813 222.835938 C 404.574219 212.195313 389.480469 198.925781 385.523438 201.25 "/>
<path style=" stroke:none;fill-rule:nonzero;fill:rgb(91.014099%,55.271912%,22.75238%);fill-opacity:1;" d="M 371.648438 200.824219 L 381.675781 210.828125 L 380.15625 221.433594 L 365.140625 209.515625 L 371.648438 200.824219 "/>
<path style=" stroke:none;fill-rule:nonzero;fill:rgb(92.96875%,85.9375%,63.476563%);fill-opacity:1;" d="M 366.066406 217.152344 C 366.066406 217.152344 377.917969 237.410156 384.742188 239.023438 C 391.566406 240.636719 392.429688 232.269531 391.597656 228.550781 C 390.761719 224.828125 372 209.304688 372 209.304688 L 366.066406 217.152344 "/>
<path style=" stroke:none;fill-rule:nonzero;fill:rgb(92.96875%,85.9375%,63.476563%);fill-opacity:1;" d="M 248.867188 157.285156 C 240.015625 155.941406 221.863281 166.152344 208.796875 175.613281 C 222.945313 195.308594 225.847656 220.492188 225.578125 236.875 C 225.523438 240.207031 228.203125 242.9375 231.539063 242.972656 L 281.5625 243.53125 C 284.765625 243.566406 287.445313 241.097656 287.648438 237.898438 C 288.429688 225.511719 289.246094 195.5625 280.929688 174.757813 C 268.945313 163.949219 253.53125 157.988281 248.867188 157.285156 "/>
<path style=" stroke:none;fill-rule:nonzero;fill:rgb(84.764099%,76.5625%,52.929688%);fill-opacity:1;" d="M 280.929688 174.757813 C 277.941406 172.0625 275.078125 170.320313 276.765625 171.84375 C 285.078125 192.644531 284.265625 222.59375 283.480469 234.984375 C 283.277344 238.179688 280.597656 240.652344 277.394531 240.617188 L 227.371094 240.054688 C 227.035156 240.054688 226.714844 240.003906 226.394531 239.945313 C 227.425781 241.730469 229.328125 242.949219 231.539063 242.972656 L 281.5625 243.53125 C 284.765625 243.566406 287.445313 241.097656 287.648438 237.898438 C 288.429688 225.511719 289.246094 195.5625 280.929688 174.757813 "/>
<path style=" stroke:none;fill-rule:nonzero;fill:rgb(84.764099%,76.5625%,52.929688%);fill-opacity:1;" d="M 248.867188 157.285156 C 240.015625 155.941406 221.863281 166.152344 208.796875 175.613281 C 212.71875 181.074219 215.769531 186.960938 218.132813 192.960938 C 225.03125 193.769531 232.605469 193.960938 240.527344 193.398438 C 258.097656 192.152344 273.484375 187.511719 283.164063 181.304688 C 282.503906 179.050781 281.769531 176.855469 280.929688 174.757813 C 268.945313 163.949219 253.53125 157.988281 248.867188 157.285156 "/>
<path style=" stroke:none;fill-rule:nonzero;fill:rgb(82.421875%,45.872498%,34.521484%);fill-opacity:1;" d="M 226.746094 163.753906 L 227.582031 129.320313 L 252.417969 129.109375 L 259.09375 160.414063 C 257.007813 177.109375 234.050781 180.03125 226.746094 163.753906 "/>
<path style=" stroke:none;fill-rule:nonzero;fill:rgb(95.701599%,89.451599%,72.068787%);fill-opacity:1;" d="M 221.320313 166.882813 L 226.332031 159.371094 C 226.332031 159.371094 243.117188 173.210938 249.496094 171.683594 C 253.648438 170.6875 259.304688 157.699219 259.304688 157.699219 L 266.191406 163.542969 L 265.941406 180.957031 L 251.773438 179.011719 L 241.21875 187.902344 L 221.320313 166.882813 "/>
<path style=" stroke:none;fill-rule:nonzero;fill:rgb(51.756287%,22.363281%,17.651367%);fill-opacity:1;" d="M 223.554688 112.550781 C 224.003906 147.546875 240.761719 173.738281 240.761719 173.738281 C 240.761719 173.738281 257.414063 176.421875 269.792969 172.378906 C 282.171875 168.335938 285.621094 154.800781 285.621094 154.800781 C 285.621094 154.800781 272.210938 133.457031 271.367188 123.976563 C 270.523438 114.496094 270.378906 96.378906 261.039063 93.292969 C 251.699219 90.203125 223.269531 90.039063 223.554688 112.550781 "/>
<path style=" stroke:none;fill-rule:nonzero;fill:rgb(42.747498%,17.259216%,14.501953%);fill-opacity:1;" d="M 268.300781 105.953125 C 268.644531 105.953125 268.984375 105.972656 269.328125 105.984375 C 268.007813 99.992188 265.644531 94.8125 261.039063 93.292969 C 251.699219 90.203125 223.269531 90.039063 223.554688 112.550781 C 223.714844 125 225.941406 136.324219 228.738281 145.761719 C 231.121094 123.335938 247.917969 105.953125 268.300781 105.953125 "/>
<path style=" stroke:none;fill-rule:nonzero;fill:rgb(92.96875%,72.459412%,51.756287%);fill-opacity:1;" d="M 225.351563 124.328125 C 221.371094 121.558594 217.488281 122.46875 216.675781 126.363281 C 215.867188 130.261719 218.4375 135.667969 222.421875 138.441406 C 226.402344 141.214844 230.285156 140.300781 231.09375 136.40625 C 231.902344 132.507813 229.332031 127.101563 225.351563 124.328125 "/>
<path style=" stroke:none;fill-rule:nonzero;fill:rgb(92.96875%,85.9375%,63.476563%);fill-opacity:1;" d="M 267.222656 70.414063 C 245.136719 71.652344 217.613281 98.179688 211.308594 121.925781 C 221.34375 104.472656 256.152344 91.371094 268.703125 103.347656 C 268.703125 103.347656 289.308594 69.175781 267.222656 70.414063 "/>
<path style=" stroke:none;fill-rule:nonzero;fill:rgb(92.96875%,72.459412%,51.756287%);fill-opacity:1;" d="M 235.808594 109.65625 C 235.808594 109.65625 236.199219 128.894531 239.65625 133.035156 C 243.175781 137.25 269.105469 130.835938 269.308594 127.71875 C 269.507813 124.710938 266.945313 108.21875 266.261719 105.519531 C 263.652344 95.28125 236 100.667969 235.808594 109.65625 "/>
<path style=" stroke:none;fill-rule:nonzero;fill:rgb(90.625%,60.742188%,41.184998%);fill-opacity:1;" d="M 263.957031 108.453125 C 264.933594 108.453125 265.898438 108.492188 266.855469 108.550781 C 266.609375 107.144531 266.394531 106.054688 266.261719 105.519531 C 263.652344 95.28125 236 100.667969 235.808594 109.65625 C 235.808594 109.65625 235.886719 113.519531 236.285156 118.152344 C 242.964844 112.21875 252.882813 108.453125 263.957031 108.453125 "/>
<path style=" stroke:none;fill-rule:nonzero;fill:rgb(92.96875%,76.951599%,31.762695%);fill-opacity:1;" d="M 118.507813 360.335938 C 118.507813 360.335938 113.296875 323.878906 113.507813 313.878906 C 119.964844 313.042969 133.296875 342.417969 133.296875 360.335938 Z M 120.824219 307.679688 C 118.644531 305.773438 75.589844 303.320313 75.589844 303.320313 C 72.046875 315.855469 69.867188 356.183594 76.953125 378.257813 L 143.167969 378.257813 C 143.167969 378.257813 144.203125 328.140625 120.824219 307.679688 "/>
<path style=" stroke:none;fill-rule:nonzero;fill:rgb(50.584412%,58.789063%,59.959412%);fill-opacity:1;" d="M 60.28125 295.878906 C 56.90625 296.585938 53.601563 294.421875 52.898438 291.050781 C 52.191406 287.679688 54.355469 284.371094 57.726563 283.667969 C 61.097656 282.964844 64.402344 285.125 65.109375 288.496094 C 65.8125 291.867188 63.652344 295.175781 60.28125 295.878906 Z M 77.765625 288.785156 L 76.589844 283.160156 L 71.519531 283.183594 C 71.011719 282.21875 70.40625 281.324219 69.707031 280.515625 L 71.574219 275.808594 L 66.761719 272.660156 L 63.199219 276.257813 C 62.175781 275.941406 61.113281 275.742188 60.027344 275.664063 L 58.015625 271.011719 L 52.390625 272.1875 L 52.410156 277.257813 C 51.449219 277.765625 50.550781 278.371094 49.746094 279.070313 L 45.039063 277.203125 L 41.890625 282.015625 L 45.488281 285.578125 C 45.167969 286.597656 44.972656 287.660156 44.894531 288.75 L 40.238281 290.761719 L 41.417969 296.386719 L 46.484375 296.363281 C 46.992188 297.328125 47.601563 298.222656 48.300781 299.03125 L 46.433594 303.738281 L 51.242188 306.886719 L 54.808594 303.289063 C 55.828125 303.605469 56.890625 303.804688 57.980469 303.882813 L 59.988281 308.535156 L 65.617188 307.359375 L 65.59375 302.289063 C 66.558594 301.78125 67.453125 301.175781 68.261719 300.476563 L 72.96875 302.34375 L 76.113281 297.53125 L 72.519531 293.96875 C 72.835938 292.949219 73.035156 291.886719 73.113281 290.796875 L 77.765625 288.785156 "/>
<path style=" stroke:none;fill-rule:nonzero;fill:rgb(91.796875%,67.771912%,25.87738%);fill-opacity:1;" d="M 139.574219 344.683594 C 142.046875 365.40625 135.382813 371.492188 118.941406 371.492188 C 102.527344 371.492188 87.601563 357.648438 79.667969 330.960938 C 76.792969 321.285156 75.796875 311.785156 76.4375 303.371094 C 75.902344 303.339844 75.589844 303.320313 75.589844 303.320313 C 72.046875 315.855469 69.867188 356.183594 76.953125 378.257813 L 143.167969 378.257813 C 143.167969 378.257813 143.496094 362.277344 139.574219 344.683594 "/>
<path style=" stroke:none;fill-rule:nonzero;fill:rgb(91.796875%,67.771912%,25.87738%);fill-opacity:1;" d="M 118.507813 360.335938 C 118.507813 360.335938 113.296875 323.878906 113.507813 313.878906 C 119.964844 313.042969 133.296875 342.417969 133.296875 360.335938 Z M 109.617188 311.8125 C 109.339844 322.976563 116.265625 363.667969 116.265625 363.667969 L 135.9375 363.667969 C 135.9375 343.667969 126.839844 311.8125 109.617188 311.8125 "/>
<path style=" stroke:none;fill-rule:nonzero;fill:rgb(92.96875%,85.9375%,63.476563%);fill-opacity:1;" d="M 107.671875 331.378906 L 76.421875 331.378906 L 78.921875 359.917969 L 110.171875 359.917969 L 107.671875 331.378906 "/>
<path style=" stroke:none;fill-rule:nonzero;fill:rgb(92.96875%,85.9375%,63.476563%);fill-opacity:1;" d="M 104.210938 324.292969 L 77.046875 324.292969 L 77.589844 328.042969 L 104.753906 328.042969 L 104.210938 324.292969 "/>
<path style=" stroke:none;fill-rule:nonzero;fill:rgb(77.734375%,65.818787%,36.083984%);fill-opacity:1;" d="M 41.480469 341.316406 L 48.589844 362.179688 L 57.757813 341.316406 L 48.902344 358.574219 L 41.480469 341.316406 "/>
<path style=" stroke:none;fill-rule:nonzero;fill:rgb(77.734375%,65.818787%,36.083984%);fill-opacity:1;" d="M 57.652344 376.347656 L 48.878906 359.128906 L 41.378906 376.347656 L 48.855469 362.105469 L 57.652344 376.347656 "/>
<path style=" stroke:none;fill-rule:nonzero;fill:rgb(82.421875%,45.872498%,34.521484%);fill-opacity:1;" d="M 224.3125 127.507813 C 221.804688 125.589844 219.460938 125.929688 219.074219 128.269531 C 218.691406 130.609375 220.410156 134.058594 222.917969 135.976563 C 225.425781 137.894531 227.769531 137.554688 228.15625 135.21875 C 228.539063 132.878906 226.820313 129.425781 224.3125 127.507813 "/>
<path style=" stroke:none;fill-rule:nonzero;fill:rgb(92.96875%,72.459412%,51.756287%);fill-opacity:1;" d="M 226.773438 132.414063 C 225.242188 131.230469 223.746094 131.527344 223.433594 133.074219 C 223.117188 134.621094 224.097656 136.835938 225.628906 138.015625 C 227.15625 139.199219 228.652344 138.902344 228.96875 137.355469 C 229.285156 135.808594 228.304688 133.59375 226.773438 132.414063 "/>
<path style=" stroke:none;fill-rule:nonzero;fill:rgb(86.71875%,77.734375%,52.146912%);fill-opacity:1;" d="M 268.769531 72.613281 C 272.527344 72.402344 275.027344 73.230469 276.621094 74.726563 C 275.375 71.886719 272.546875 70.113281 267.222656 70.414063 C 245.136719 71.652344 217.613281 98.179688 211.308594 121.925781 C 212.476563 119.890625 213.996094 117.917969 215.765625 116.03125 C 225.304688 94.722656 249.171875 73.710938 268.769531 72.613281 "/>
<path style=" stroke:none;fill-rule:nonzero;fill:rgb(95.701599%,89.451599%,72.068787%);fill-opacity:1;" d="M 233.230469 253.734375 C 233.230469 251.203125 231.832031 249.152344 230.105469 249.152344 C 228.378906 249.152344 226.980469 251.203125 226.980469 253.734375 C 226.980469 256.269531 228.378906 258.320313 230.105469 258.320313 C 231.832031 258.320313 233.230469 256.269531 233.230469 253.734375 "/>
<path style=" stroke:none;fill-rule:nonzero;fill:rgb(95.701599%,89.451599%,72.068787%);fill-opacity:1;" d="M 287.191406 252.835938 C 287.191406 250.300781 285.792969 248.25 284.066406 248.25 C 282.339844 248.25 280.941406 250.300781 280.941406 252.835938 C 280.941406 255.363281 282.339844 257.417969 284.066406 257.417969 C 285.792969 257.417969 287.191406 255.363281 287.191406 252.835938 "/>
<path style=" stroke:none;fill-rule:nonzero;fill:rgb(32.151794%,50.584412%,62.693787%);fill-opacity:1;" d="M 233.4375 264.570313 L 220.105469 264.570313 L 220.105469 262.902344 L 233.4375 262.902344 C 235.585938 262.902344 237.328125 261.160156 237.328125 259.015625 L 237.328125 250.402344 L 238.996094 250.402344 L 238.996094 259.015625 C 238.996094 262.078125 236.503906 264.570313 233.4375 264.570313 "/>
<path style=" stroke:none;fill-rule:nonzero;fill:rgb(32.151794%,50.584412%,62.693787%);fill-opacity:1;" d="M 287.054688 264.570313 L 280.1875 264.570313 C 277.847656 264.570313 275.941406 262.078125 275.941406 259.015625 L 275.941406 250.402344 L 277.605469 250.402344 L 277.605469 259.015625 C 277.605469 261.121094 278.789063 262.902344 280.1875 262.902344 L 287.054688 262.902344 C 289.195313 262.902344 290.941406 261.160156 290.941406 259.015625 L 290.941406 251.792969 L 292.609375 251.792969 L 292.609375 259.015625 C 292.609375 262.078125 290.117188 264.570313 287.054688 264.570313 "/>
<path style=" stroke:none;fill-rule:nonzero;fill:rgb(69.726563%,80.076599%,80.859375%);fill-opacity:1;" d="M 383.738281 165.675781 L 377.195313 162.894531 C 375.503906 162.171875 373.546875 162.960938 372.828125 164.652344 L 368.25 175.414063 L 380.925781 180.804688 L 385.503906 170.046875 C 386.222656 168.351563 385.433594 166.394531 383.738281 165.675781 "/>
<path style=" stroke:none;fill-rule:nonzero;fill:rgb(69.726563%,80.076599%,80.859375%);fill-opacity:1;" d="M 389.667969 145.40625 L 387.886719 144.648438 L 378.566406 166.765625 L 380.347656 167.523438 L 389.667969 145.40625 "/>
<path style=" stroke:none;fill-rule:nonzero;fill:rgb(69.726563%,80.076599%,80.859375%);fill-opacity:1;" d="M 382.148438 160.398438 C 380.554688 159.71875 378.714844 160.464844 378.035156 162.058594 L 376.582031 165.46875 L 382.359375 167.925781 L 383.808594 164.515625 C 384.488281 162.917969 383.746094 161.074219 382.148438 160.398438 "/>
<path style=" stroke:none;fill-rule:nonzero;fill:rgb(82.8125%,92.576599%,92.96875%);fill-opacity:1;" d="M 383.738281 165.675781 L 377.195313 162.894531 C 376.21875 162.476563 375.15625 162.578125 374.289063 163.054688 C 374.375 163.21875 374.429688 163.386719 374.519531 163.554688 C 377.1875 168.433594 382.105469 170.882813 385.503906 169.023438 C 385.601563 168.972656 385.671875 168.890625 385.761719 168.832031 C 385.796875 167.503906 385.035156 166.226563 383.738281 165.675781 "/>
<path style=" stroke:none;fill-rule:nonzero;fill:rgb(56.834412%,68.164063%,68.554688%);fill-opacity:1;" d="M 384.390625 157.933594 L 383.0625 156.101563 L 382.113281 158.34375 L 383.445313 160.179688 L 384.390625 157.933594 "/>
<path style=" stroke:none;fill-rule:nonzero;fill:rgb(56.834412%,68.164063%,68.554688%);fill-opacity:1;" d="M 386.074219 153.929688 L 384.746094 152.097656 L 383.800781 154.34375 L 385.128906 156.175781 L 386.074219 153.929688 "/>
<path style=" stroke:none;fill-rule:nonzero;fill:rgb(56.834412%,68.164063%,68.554688%);fill-opacity:1;" d="M 387.761719 149.929688 L 386.433594 148.097656 L 385.488281 150.339844 L 386.816406 152.175781 L 387.761719 149.929688 "/>
<path style=" stroke:none;fill-rule:nonzero;fill:rgb(56.834412%,68.164063%,68.554688%);fill-opacity:1;" d="M 389.449219 145.925781 L 388.804688 145.039063 L 387.886719 144.648438 L 387.175781 146.339844 L 388.503906 148.171875 L 389.449219 145.925781 "/>
<path style=" stroke:none;fill-rule:nonzero;fill:rgb(97.65625%,91.796875%,75.389099%);fill-opacity:1;" d="M 386.449219 175.011719 C 386.355469 180.851563 375.394531 207.289063 371.160156 217.289063 C 370.152344 219.675781 367.953125 221.339844 365.382813 221.675781 C 364.210938 221.824219 363.019531 221.691406 361.910156 221.28125 C 361.910156 221.28125 347.691406 214.71875 351.699219 204.523438 C 355.320313 195.304688 367.160156 167.6875 368.519531 166.828125 C 370.148438 165.796875 386.496094 172.089844 386.449219 175.011719 "/>
<path style=" stroke:none;fill-rule:nonzero;fill:rgb(92.96875%,85.9375%,63.476563%);fill-opacity:1;" d="M 386.449219 175.011719 C 386.457031 174.390625 385.722656 173.617188 384.546875 172.792969 C 383.640625 176.34375 382.429688 180.082031 380.875 183.886719 C 373.9375 200.855469 363.222656 212.53125 356.9375 209.964844 C 354.558594 208.992188 353.160156 206.109375 352.710938 201.992188 C 352.328125 202.933594 351.984375 203.789063 351.699219 204.523438 C 347.691406 214.71875 361.910156 221.28125 361.910156 221.28125 C 363.019531 221.691406 364.210938 221.824219 365.382813 221.675781 C 367.953125 221.339844 370.152344 219.675781 371.160156 217.289063 C 375.394531 207.289063 386.355469 180.851563 386.449219 175.011719 "/>
<path style=" stroke:none;fill-rule:nonzero;fill:rgb(29.80957%,27.050781%,27.050781%);fill-opacity:1;" d="M 445.476563 328.101563 C 443.933594 299.648438 419.5625 276.582031 391.042969 276.582031 C 362.523438 276.582031 340.648438 299.648438 342.191406 328.101563 C 343.734375 356.554688 368.105469 379.617188 396.625 379.617188 C 425.148438 379.617188 447.019531 356.554688 445.476563 328.101563 "/>
<path style=" stroke:none;fill-rule:nonzero;fill:rgb(29.80957%,27.050781%,27.050781%);fill-opacity:1;" d="M 402.886719 274.765625 L 382.554688 277.28125 L 393.027344 285.125 Z M 402.886719 274.765625 "/>
<path style=" stroke:none;fill-rule:nonzero;fill:rgb(29.80957%,27.050781%,27.050781%);fill-opacity:1;" d="M 395.949219 379.617188 L 409.242188 379.617188 L 402.398438 369.257813 Z M 395.949219 379.617188 "/>
<path style=" stroke:none;fill-rule:nonzero;fill:rgb(37.646484%,34.104919%,34.104919%);fill-opacity:1;" d="M 459.683594 327.164063 C 458.140625 298.195313 433.769531 274.710938 405.25 274.710938 C 376.726563 274.710938 354.855469 298.195313 356.398438 327.164063 C 357.9375 356.132813 382.308594 379.617188 410.832031 379.617188 C 439.351563 379.617188 461.226563 356.132813 459.683594 327.164063 "/>
<path style=" stroke:none;fill-rule:nonzero;fill:rgb(29.80957%,27.050781%,27.050781%);fill-opacity:1;" d="M 445.449219 327.164063 C 444.332031 306.179688 426.679688 289.167969 406.019531 289.167969 C 385.359375 289.167969 369.515625 306.179688 370.632813 327.164063 C 371.746094 348.148438 389.402344 365.160156 410.0625 365.160156 C 430.722656 365.160156 446.566406 348.148438 445.449219 327.164063 "/>
<path style=" stroke:none;fill-rule:nonzero;fill:rgb(23.925781%,21.166992%,21.166992%);fill-opacity:1;" d="M 371.902344 335.1875 C 377.09375 322.054688 389.632813 312.917969 404.769531 312.917969 C 422.71875 312.917969 438.390625 325.761719 442.929688 342.890625 C 444.824219 338.097656 445.746094 332.777344 445.449219 327.164063 C 444.332031 306.179688 426.679688 289.167969 406.019531 289.167969 C 385.359375 289.167969 369.515625 306.179688 370.632813 327.164063 C 370.777344 329.917969 371.214844 332.601563 371.902344 335.1875 "/>
<path style=" stroke:none;fill-rule:nonzero;fill:rgb(85.9375%,75.389099%,46.655273%);fill-opacity:1;" d="M 433.324219 328.101563 C 432.460938 312.179688 418.820313 299.269531 402.859375 299.269531 C 386.898438 299.269531 374.660156 312.179688 375.523438 328.101563 C 376.386719 344.023438 390.023438 356.929688 405.984375 356.929688 C 421.945313 356.929688 434.183594 344.023438 433.324219 328.101563 "/>
<path style=" stroke:none;fill-rule:nonzero;fill:rgb(92.96875%,85.9375%,63.476563%);fill-opacity:1;" d="M 426.507813 328.101563 C 425.773438 314.558594 414.171875 303.578125 400.59375 303.578125 C 387.015625 303.578125 376.605469 314.558594 377.339844 328.101563 C 378.070313 341.648438 389.671875 352.628906 403.25 352.628906 C 416.828125 352.628906 427.242188 341.648438 426.507813 328.101563 "/>
<path style=" stroke:none;fill-rule:nonzero;fill:rgb(85.9375%,75.389099%,46.655273%);fill-opacity:1;" d="M 410.023438 364.417969 C 389.765625 364.417969 372.457031 347.738281 371.363281 327.164063 C 370.265625 306.589844 385.800781 289.910156 406.058594 289.910156 C 426.316406 289.910156 443.625 306.589844 444.71875 327.164063 C 445.8125 347.738281 430.28125 364.417969 410.023438 364.417969 Z M 446.675781 327.164063 C 445.523438 305.488281 427.289063 287.921875 405.953125 287.921875 C 384.613281 287.921875 368.25 305.488281 369.402344 327.164063 C 370.558594 348.839844 388.789063 366.40625 410.128906 366.40625 C 431.46875 366.40625 447.828125 348.839844 446.675781 327.164063 "/>
<path style=" stroke:none;fill-rule:nonzero;fill:rgb(23.925781%,21.166992%,21.166992%);fill-opacity:1;" d="M 406.8125 328.105469 C 406.699219 326.019531 404.917969 324.332031 402.828125 324.332031 C 400.742188 324.332031 399.140625 326.019531 399.253906 328.101563 C 399.367188 330.183594 401.148438 331.871094 403.238281 331.871094 C 405.324219 331.875 406.925781 330.1875 406.8125 328.105469 "/>
<path style=" stroke:none;fill-rule:nonzero;fill:rgb(29.80957%,27.050781%,27.050781%);fill-opacity:1;" d="M 401.394531 303.660156 C 401.328125 302.417969 400.265625 301.414063 399.023438 301.414063 C 397.777344 301.414063 396.824219 302.417969 396.894531 303.660156 C 396.960938 304.898438 398.023438 305.90625 399.265625 305.90625 C 400.507813 305.90625 401.464844 304.898438 401.394531 303.660156 "/>
<path style=" stroke:none;fill-rule:nonzero;fill:rgb(29.80957%,27.050781%,27.050781%);fill-opacity:1;" d="M 412.089844 353.523438 C 412.023438 352.28125 410.960938 351.277344 409.71875 351.277344 C 408.472656 351.277344 407.519531 352.28125 407.585938 353.523438 C 407.65625 354.761719 408.71875 355.769531 409.960938 355.769531 C 411.203125 355.769531 412.15625 354.761719 412.089844 353.523438 "/>
<path style=" stroke:none;fill-rule:nonzero;fill:rgb(29.80957%,27.050781%,27.050781%);fill-opacity:1;" d="M 430.144531 320.882813 C 430.078125 319.640625 429.015625 318.636719 427.773438 318.636719 C 426.53125 318.636719 425.574219 319.640625 425.644531 320.882813 C 425.710938 322.121094 426.773438 323.128906 428.015625 323.128906 C 429.261719 323.128906 430.214844 322.121094 430.144531 320.882813 "/>
<path style=" stroke:none;fill-rule:nonzero;fill:rgb(29.80957%,27.050781%,27.050781%);fill-opacity:1;" d="M 382.363281 334.710938 C 382.296875 333.472656 381.234375 332.464844 379.988281 332.464844 C 378.746094 332.464844 377.792969 333.46875 377.859375 334.710938 C 377.925781 335.949219 378.988281 336.957031 380.230469 336.957031 C 381.476563 336.957031 382.429688 335.949219 382.363281 334.710938 "/>
<path style=" stroke:none;fill-rule:nonzero;fill:rgb(29.80957%,27.050781%,27.050781%);fill-opacity:1;" d="M 386.113281 314.710938 C 386.046875 313.46875 384.984375 312.464844 383.738281 312.464844 C 382.496094 312.464844 381.542969 313.46875 381.609375 314.710938 C 381.675781 315.949219 382.738281 316.957031 383.984375 316.957031 C 385.226563 316.957031 386.179688 315.949219 386.113281 314.710938 "/>
<path style=" stroke:none;fill-rule:nonzero;fill:rgb(29.80957%,27.050781%,27.050781%);fill-opacity:1;" d="M 418.753906 307.070313 C 418.683594 305.832031 417.621094 304.824219 416.378906 304.824219 C 415.136719 304.824219 414.183594 305.832031 414.25 307.070313 C 414.316406 308.3125 415.378906 309.316406 416.621094 309.316406 C 417.867188 309.316406 418.820313 308.3125 418.753906 307.070313 "/>
<path style=" stroke:none;fill-rule:nonzero;fill:rgb(29.80957%,27.050781%,27.050781%);fill-opacity:1;" d="M 428.058594 341.796875 C 427.992188 340.554688 426.929688 339.550781 425.683594 339.550781 C 424.441406 339.546875 423.488281 340.554688 423.554688 341.792969 C 423.621094 343.035156 424.683594 344.039063 425.929688 344.039063 C 427.171875 344.039063 428.125 343.035156 428.058594 341.796875 "/>
<path style=" stroke:none;fill-rule:nonzero;fill:rgb(29.80957%,27.050781%,27.050781%);fill-opacity:1;" d="M 394.863281 349.988281 C 394.796875 348.75 393.734375 347.742188 392.488281 347.742188 C 391.246094 347.742188 390.292969 348.75 390.359375 349.988281 C 390.425781 351.230469 391.488281 352.234375 392.734375 352.234375 C 393.976563 352.234375 394.929688 351.230469 394.863281 349.988281 "/>
<path style=" stroke:none;fill-rule:nonzero;fill:rgb(90.625%,60.742188%,41.184998%);fill-opacity:1;" d="M 96.828125 213.230469 C 92.167969 210.363281 92.117188 208.140625 92.953125 205.890625 C 93.78125 203.660156 95.167969 202.234375 99.789063 204.960938 C 104.519531 207.746094 107.804688 211.941406 107.011719 214.289063 C 106.214844 216.660156 101.605469 216.164063 96.828125 213.230469 "/>
<path style=" stroke:none;fill-rule:nonzero;fill:rgb(90.625%,60.742188%,41.184998%);fill-opacity:1;" d="M 94.0625 222.988281 C 89.09375 219.746094 89.019531 217.425781 89.878906 215.125 C 90.734375 212.84375 92.191406 211.433594 97.117188 214.515625 C 102.171875 217.679688 105.710938 222.242188 104.894531 224.65625 C 104.070313 227.089844 99.164063 226.320313 94.0625 222.988281 "/>
<path style=" stroke:none;fill-rule:nonzero;fill:rgb(90.625%,60.742188%,41.184998%);fill-opacity:1;" d="M 90.265625 232.773438 C 85.5 229.558594 85.488281 227.136719 86.386719 224.710938 C 87.273438 222.308594 88.730469 220.792969 93.449219 223.847656 C 98.289063 226.976563 101.613281 231.613281 100.761719 234.148438 C 99.902344 236.714844 95.148438 236.074219 90.265625 232.773438 "/>
<path style=" stroke:none;fill-rule:nonzero;fill:rgb(90.625%,60.742188%,41.184998%);fill-opacity:1;" d="M 105.171875 207.519531 C 108.996094 207.871094 109.617188 207.074219 119.972656 213.820313 C 123.808594 216.320313 125.238281 221.191406 123.46875 225.503906 L 116.144531 222.296875 C 114.609375 226.039063 116.921875 244.183594 112.035156 241.714844 C 106.421875 238.875 96.453125 235.414063 92.550781 232.601563 C 90.066406 230.644531 100.449219 207.085938 105.171875 207.519531 "/>
<path style=" stroke:none;fill-rule:nonzero;fill:rgb(92.96875%,72.459412%,51.756287%);fill-opacity:1;" d="M 121.441406 209.5625 C 126.011719 209.636719 129.417969 216.746094 129.117188 225.136719 C 128.832031 233.199219 130.816406 242.542969 126.675781 242.714844 C 122.476563 242.890625 113.058594 233.601563 113.03125 225.320313 C 113 216.695313 116.796875 209.492188 121.441406 209.5625 "/>
<path style=" stroke:none;fill-rule:nonzero;fill:rgb(35.301208%,28.637695%,28.637695%);fill-opacity:1;" d="M 250.449219 123.46875 C 250.089844 120.765625 248.519531 118.65625 246.941406 118.757813 C 245.363281 118.859375 244.375 121.136719 244.734375 123.84375 C 245.089844 126.546875 246.660156 128.65625 248.238281 128.554688 C 249.816406 128.449219 250.808594 126.171875 250.449219 123.46875 "/>
<path style=" stroke:none;fill-rule:nonzero;fill:rgb(51.756287%,22.363281%,17.651367%);fill-opacity:1;" d="M 247.082031 107.773438 L 237.625 111.75 C 236.828125 112.085938 236.453125 113.019531 236.785156 113.839844 L 238.042969 116.929688 C 238.378906 117.75 239.292969 118.140625 240.089844 117.808594 L 249.546875 113.828125 C 250.339844 113.492188 250.714844 112.558594 250.382813 111.738281 L 249.125 108.652344 C 248.792969 107.832031 247.878906 107.4375 247.082031 107.773438 "/>
<path style=" stroke:none;fill-rule:nonzero;fill:rgb(35.301208%,28.637695%,28.637695%);fill-opacity:1;" d="M 266.980469 120.371094 C 266.191406 117.757813 264.308594 115.929688 262.769531 116.289063 C 261.234375 116.648438 260.625 119.058594 261.414063 121.675781 C 262.203125 124.292969 264.085938 126.121094 265.625 125.761719 C 267.164063 125.402344 267.769531 122.988281 266.980469 120.371094 "/>
<path style=" stroke:none;fill-rule:nonzero;fill:rgb(51.756287%,22.363281%,17.651367%);fill-opacity:1;" d="M 268.777344 106.351563 L 260.128906 105.710938 C 259.402344 105.652344 258.796875 106.246094 258.777344 107.03125 L 258.703125 109.992188 C 258.683594 110.78125 259.257813 111.460938 259.984375 111.515625 L 268.632813 112.160156 C 269.359375 112.214844 269.964844 111.621094 269.984375 110.835938 L 270.058594 107.875 C 270.078125 107.089844 269.503906 106.40625 268.777344 106.351563 "/>
<path style=" stroke:none;fill-rule:nonzero;fill:rgb(82.421875%,45.872498%,34.521484%);fill-opacity:1;" d="M 257.605469 120.777344 C 261.046875 126.773438 262.402344 130.636719 260.117188 132.191406 C 258.691406 133.160156 256.449219 133.011719 254.648438 132.660156 L 254.621094 132.78125 C 254.621094 132.78125 260.28125 134.816406 262.796875 133.355469 C 265.285156 131.910156 262.769531 127.621094 257.605469 120.777344 "/>
<path style=" stroke:none;fill-rule:nonzero;fill:rgb(34.910583%,13.330078%,11.767578%);fill-opacity:1;" d="M 247.597656 137.867188 L 247.21875 140.414063 C 247.484375 140.542969 253.820313 143.511719 262.554688 140.003906 L 261.96875 138.9375 C 253.960938 142.152344 247.660156 137.894531 247.597656 137.867188 "/>
<path style=" stroke:none;fill-rule:nonzero;fill:rgb(34.910583%,13.330078%,11.767578%);fill-opacity:1;" d="M 259.265625 146.019531 C 259.214844 146.773438 257.703125 147.28125 255.886719 147.152344 C 254.070313 147.027344 252.636719 146.3125 252.683594 145.5625 C 252.734375 144.808594 254.246094 144.300781 256.0625 144.429688 C 257.878906 144.554688 259.3125 145.269531 259.265625 146.019531 "/>
<path style=" stroke:none;fill-rule:nonzero;fill:rgb(92.96875%,72.459412%,51.756287%);fill-opacity:1;" d="M 390.246094 218.476563 C 386.082031 221.4375 386.589844 223.421875 388.03125 225.351563 C 389.457031 227.265625 391.273438 228.410156 395.429688 225.585938 C 399.6875 222.6875 402.074219 218.664063 400.652344 216.644531 C 399.222656 214.605469 394.511719 215.449219 390.246094 218.476563 "/>
<path style=" stroke:none;fill-rule:nonzero;fill:rgb(92.96875%,72.459412%,51.756287%);fill-opacity:1;" d="M 384.890625 210.03125 C 380.496094 213.351563 381.003906 215.425781 382.484375 217.398438 C 383.953125 219.355469 385.835938 220.484375 390.222656 217.308594 C 394.726563 214.050781 397.285156 209.675781 395.824219 207.601563 C 394.347656 205.503906 389.398438 206.621094 384.890625 210.03125 "/>
<path style=" stroke:none;fill-rule:nonzero;fill:rgb(92.96875%,72.459412%,51.756287%);fill-opacity:1;" d="M 378.445313 201.652344 C 374.261719 204.933594 374.855469 207.089844 376.410156 209.167969 C 377.945313 211.230469 379.851563 212.453125 384.03125 209.320313 C 388.316406 206.109375 390.636719 201.695313 389.101563 199.507813 C 387.554688 197.300781 382.734375 198.285156 378.445313 201.652344 "/>
<path style=" stroke:none;fill-rule:nonzero;fill:rgb(92.96875%,72.459412%,51.756287%);fill-opacity:1;" d="M 366.988281 209.910156 C 363.011719 211.847656 356.726563 223.765625 360.386719 230.957031 C 363.90625 237.871094 377.886719 236.3125 374.554688 229.082031 C 371.085938 221.550781 371.027344 207.945313 366.988281 209.910156 "/>
<path style=" stroke:none;fill-rule:nonzero;fill:rgb(92.96875%,72.459412%,51.756287%);fill-opacity:1;" d="M 383.5625 204.859375 C 382.589844 204.578125 378.121094 206.820313 370.507813 207.804688 C 365.160156 208.496094 362.445313 215.574219 365.972656 220.597656 C 370.371094 221.039063 385.660156 214.023438 386.878906 211.53125 C 388.207031 208.8125 385.683594 205.480469 383.5625 204.859375 "/>
<path style=" stroke:none;fill-rule:nonzero;fill:rgb(69.726563%,80.076599%,80.859375%);fill-opacity:1;" d="M 142.148438 167.527344 C 142.148438 167.527344 137.742188 179.835938 131.078125 175.410156 C 124.414063 170.988281 134.300781 161.789063 134.300781 161.789063 C 123.191406 158.386719 115.886719 173.722656 121.574219 181.050781 C 121.949219 181.53125 122.355469 181.984375 122.78125 182.417969 C 114.648438 200.765625 100.9375 221.34375 85.25 242.710938 C 82.320313 241.648438 76.273438 240.632813 69.136719 250.84375 C 66.210938 255.03125 65.332031 258.511719 65.582031 261.175781 C 65.90625 264.5625 70.894531 264.917969 71.734375 261.621094 C 72.027344 260.472656 72.894531 259.078125 74.75 257.40625 C 81.328125 251.484375 85.90625 259.871094 85.90625 259.871094 L 83.71875 269.609375 C 83.257813 271.660156 85.539063 273.296875 87.28125 272.121094 C 96.253906 266.070313 97.804688 253.921875 92.023438 247.097656 C 95.042969 240.066406 111.464844 202.875 127.6875 185.796875 C 133.792969 188.542969 141.394531 187.4375 144.980469 179.273438 C 149.964844 167.9375 142.148438 167.527344 142.148438 167.527344 "/>
<path style=" stroke:none;fill-rule:nonzero;fill:rgb(56.834412%,70.506287%,70.896912%);fill-opacity:1;" d="M 122.78125 182.417969 C 114.828125 200.359375 101.539063 220.433594 86.285156 241.292969 C 86.898438 241.414063 87.449219 241.578125 87.910156 241.746094 C 103.601563 220.378906 117.3125 199.800781 125.445313 181.453125 C 125.015625 181.019531 124.609375 180.5625 124.238281 180.085938 C 120.027344 174.660156 122.941406 164.855469 129.242188 161.503906 C 121.167969 163.152344 116.808594 174.910156 121.574219 181.050781 C 121.949219 181.53125 122.355469 181.984375 122.78125 182.417969 "/>
<path style=" stroke:none;fill-rule:nonzero;fill:rgb(56.834412%,70.506287%,70.896912%);fill-opacity:1;" d="M 144.144531 168.144531 C 143.113281 167.589844 142.148438 167.527344 142.148438 167.527344 C 142.148438 167.527344 140.152344 173.097656 136.8125 175.394531 C 140.386719 175.234375 142.988281 170.644531 144.144531 168.144531 "/>
<path style=" stroke:none;fill-rule:nonzero;fill:rgb(56.834412%,70.506287%,70.896912%);fill-opacity:1;" d="M 130.351563 184.828125 C 129.898438 185.308594 129.445313 185.804688 128.992188 186.3125 C 132.324219 187.472656 135.964844 187.476563 139.097656 185.871094 C 136.21875 186.519531 133.132813 186.082031 130.351563 184.828125 "/>
<path style=" stroke:none;fill-rule:nonzero;fill:rgb(56.834412%,70.506287%,70.896912%);fill-opacity:1;" d="M 86.378906 268.644531 L 88.566406 258.90625 C 88.566406 258.90625 84.664063 251.78125 78.886719 255.34375 C 83.164063 254.890625 85.90625 259.871094 85.90625 259.871094 L 83.71875 269.609375 C 83.257813 271.660156 85.539063 273.296875 87.28125 272.121094 C 87.585938 271.914063 87.863281 271.683594 88.15625 271.464844 C 86.992188 271.175781 86.074219 270.011719 86.378906 268.644531 "/>
<path style=" stroke:none;fill-rule:nonzero;fill:rgb(56.834412%,70.506287%,70.896912%);fill-opacity:1;" d="M 68.246094 260.210938 C 67.992188 257.542969 68.875 254.066406 71.800781 249.878906 C 74.683594 245.753906 77.382813 243.480469 79.777344 242.28125 C 76.816406 242.910156 73.148438 245.105469 69.136719 250.84375 C 66.210938 255.03125 65.332031 258.511719 65.582031 261.175781 C 65.851563 264.015625 69.394531 264.714844 71.03125 262.925781 C 69.675781 262.789063 68.402344 261.863281 68.246094 260.210938 "/>
<path style=" stroke:none;fill-rule:nonzero;fill:rgb(92.96875%,72.459412%,51.756287%);fill-opacity:1;" d="M 98.207031 223.792969 C 103.210938 225.488281 103.285156 227.617188 102.421875 229.96875 C 101.566406 232.296875 100.101563 233.984375 95.144531 232.414063 C 90.070313 230.808594 86.523438 227.519531 87.339844 225.085938 C 88.164063 222.625 93.082031 222.054688 98.207031 223.792969 "/>
<path style=" stroke:none;fill-rule:nonzero;fill:rgb(92.96875%,72.459412%,51.756287%);fill-opacity:1;" d="M 101.046875 213.785156 C 106.382813 215.773438 106.484375 217.988281 105.59375 220.394531 C 104.710938 222.777344 103.175781 224.46875 97.886719 222.621094 C 92.460938 220.726563 88.640625 217.144531 89.480469 214.640625 C 90.332031 212.113281 95.570313 211.742188 101.046875 213.785156 "/>
<path style=" stroke:none;fill-rule:nonzero;fill:rgb(92.96875%,72.459412%,51.756287%);fill-opacity:1;" d="M 104.988281 203.515625 C 110.101563 205.527344 110.144531 207.851563 109.214844 210.386719 C 108.292969 212.898438 106.757813 214.6875 101.691406 212.820313 C 96.496094 210.910156 92.902344 207.210938 93.78125 204.578125 C 94.667969 201.917969 99.746094 201.453125 104.988281 203.515625 "/>
<path style=" stroke:none;fill-rule:nonzero;fill:rgb(92.96875%,72.459412%,51.756287%);fill-opacity:1;" d="M 117.105469 198.804688 C 118.015625 199.320313 119.554688 204.265625 124.292969 210.640625 C 127.617188 215.109375 124.296875 222.265625 118.027344 223.289063 C 114.535156 220.34375 108.777344 203.894531 109.757813 201.183594 C 110.828125 198.222656 115.121094 197.675781 117.105469 198.804688 "/>
</g>
</svg>
